<svg style="position: absolute; width: 0; height: 0; overflow: hidden;" version="1.1" xmlns="http://www.w3.org/2000/svg"
     xmlns:xlink="http://www.w3.org/1999/xlink">
    <defs>

        <symbol id="star-empty" viewBox="0 0 34 32">
            <title>star-empty</title>
            <path class="path-star-empty"
                  d="m9.75 22-1.7-3h-3.3L2.5 15l1.7-3-1.7-3 2.25-4h3.3l1.7-3h4.5l1.7 3h3.3l2.25 4-1.7 3 1.7 3-2.25 4h-3.3l-1.7 3Zm6.2-11h2.15l1.1-2-1.1-2h-2.15l-1.125 2Zm-5 3h2.1l1.125-2-1.125-2h-2.1l-1.125 2Zm0-6h2.1l1.15-2.025L13.075 4h-2.15L9.8 5.975Zm-5.025 3H8.05l1.125-2L8.05 7H5.925L4.8 9Zm0 6H8.05l1.125-2-1.125-2H5.9l-1.1 2Zm5 3h2.15l1.125-1.975L13.05 16h-2.1L9.8 18.025Zm5.025-3h2.125l1.125-2-1.125-2H15.95l-1.125 2Z"/>
        </symbol>

        <symbol id="star-half" viewBox="0 0 34 32">
            <title>star-half</title>
            <path class="path-star-half"
                  d="M 33.412,12.395 21.57,11.374 16.942,0.47 12.314,11.39 0.472,12.395 9.465,20.186 6.764,31.765 16.943,25.621 27.122,31.765 24.437,20.186 33.413,12.395 Z M 16.941,22.541 c 0,0 -0.297971,-14.6455833 0,-15.318 l 2.816,6.654 7.214,0.626 -5.468,4.744 1.647,7.049 z"/>
            </symbol>

        <symbol id="star-filled" viewBox="0 0 34 32">
            <title>star-filled</title>
            <path class="path-star-filled"
                  d="M16.275 11.5h3.35l1.7-3-1.7-3h-3.35l-1.7 3Zm-5.95 3.5h3.35l1.7-3-1.7-3h-3.35l-1.7 3Zm0-7h3.35l1.7-3-1.7-3h-3.35l-1.7 3Zm-5.95 3.5h3.35l1.625-3-1.625-3h-3.35l-1.7 3Zm0 7h3.35l1.625-3-1.625-3h-3.35l-1.7 3Zm6.05 3.5h3.25l1.7-3-1.7-3h-3.35l-1.7 3Zm5.85-3.5h3.35l1.7-3-1.7-3h-3.35l-1.7 3Z"/>
        </symbol>

    </defs>
</svg>
