<svg style="position: absolute; width: 0; height: 0; overflow: hidden;" version="1.1" xmlns="http://www.w3.org/2000/svg"
     xmlns:xlink="http://www.w3.org/1999/xlink">
    <defs>

        <symbol id="star-empty" viewBox="0 0 34 32">
            <title>star-empty</title>
            <g transform="translate(0.000000,32.000000) scale(0.100000,-0.100000)" fill="#000000" stroke="none">
            <path class="path-star-empty" d="M201 291 c-14 -25 -14 -58 0 -66 16 -10 60 36 57 60 -4 28 -43 32
            -57 6z m39 -15 c0 -16 -18 -31 -27 -22 -8 8 5 36 17 36 5 0 10 -6 10 -14z"/>
            <path d="M10 285 c-19 -23 -3 -63 31 -81 23 -11 44 -14 76 -9 60 9 66 29 20
            72 -29 26 -45 33 -76 33 -22 0 -44 -6 -51 -15z m118 -32 c25 -25 25 -27 7 -34
            -54 -21 -126 8 -112 44 11 28 73 22 105 -10z"/>
            <path d="M172 180 c-35 -21 -92 -103 -92 -131 0 -23 50 -39 122 -39 52 0 63 3
            89 29 45 45 34 118 -22 147 -37 19 -58 18 -97 -6z m103 -25 c43 -42 24 -122
            -20 -85 -18 15 -38 77 -31 95 8 21 23 18 51 -10z m-67 -28 c6 -23 21 -53 33
            -65 25 -27 22 -33 -20 -34 -39 -1 -58 15 -71 60 -8 31 -7 39 12 59 12 13 25
            23 29 23 3 0 11 -19 17 -43z m-55 -86 c10 -12 8 -13 -18 -7 -40 10 -40 11 -25
            43 l12 28 10 -24 c5 -14 14 -32 21 -40z"/>
            </g>
        </symbol>

        <symbol id="star-half" viewBox="0 0 34 32">
            <title>star-half</title>
            <path class="path-star-half"
                  d="M 33.412,12.395 21.57,11.374 16.942,0.47 12.314,11.39 0.472,12.395 9.465,20.186 6.764,31.765 16.943,25.621 27.122,31.765 24.437,20.186 33.413,12.395 Z M 16.941,22.541 c 0,0 -0.297971,-14.6455833 0,-15.318 l 2.816,6.654 7.214,0.626 -5.468,4.744 1.647,7.049 z"/>
            </symbol>

        <symbol id="star-filled" viewBox="0 0 34 32">
            <title>star-filled</title>
            <g transform="translate(0.000000,32.000000) scale(0.100000,-0.100000)" fill="#f39c12" stroke="none">
              <path class="path-star-filled" d="M201 291 c-14 -25 -14 -58 0 -66 16 -10 60 36 57 60 -4 28 -43 32
          -57 6z"/>
              <path d="M10 285 c-19 -23 -3 -63 31 -81 23 -11 44 -14 76 -9 60 9 66 29 20
          72 -29 26 -45 33 -76 33 -22 0 -44 -6 -51 -15z"/>
              <path d="M224 185 c-11 -28 7 -86 37 -118 28 -31 30 -31 44 -13 30 39 11 107
          -36 132 -35 18 -38 18 -45 -1z"/>
              <path d="M161 174 c-19 -14 -22 -23 -18 -55 3 -21 15 -54 27 -74 18 -29 28
          -35 55 -35 40 0 51 12 28 31 -22 19 -53 88 -53 122 0 31 -7 33 -39 11z"/>
              <path d="M96 92 c-9 -17 -16 -38 -16 -46 0 -14 62 -41 78 -34 4 2 -5 27 -19
          57 l-27 54 -16 -31z"/>
            </g>
        </symbol>

    </defs>
</svg>
