<?xml version="1.0" standalone="no"?>
<!DOCTYPE svg PUBLIC "-//W3C//DTD SVG 20010904//EN"
 "http://www.w3.org/TR/2001/REC-SVG-20010904/DTD/svg10.dtd">
<svg version="1.0" xmlns="http://www.w3.org/2000/svg"
 width="32.000000pt" height="32.000000pt" viewBox="0 0 32.000000 32.000000"
 preserveAspectRatio="xMidYMid meet">

<g transform="translate(0.000000,32.000000) scale(0.100000,-0.100000)"
fill="#000000" stroke="none">
<path d="M201 291 c-14 -25 -14 -58 0 -66 16 -10 60 36 57 60 -4 28 -43 32
-57 6z m39 -15 c0 -16 -18 -31 -27 -22 -8 8 5 36 17 36 5 0 10 -6 10 -14z"/>
<path d="M10 285 c-19 -23 -3 -63 31 -81 23 -11 44 -14 76 -9 60 9 66 29 20
72 -29 26 -45 33 -76 33 -22 0 -44 -6 -51 -15z m118 -32 c25 -25 25 -27 7 -34
-54 -21 -126 8 -112 44 11 28 73 22 105 -10z"/>
<path d="M172 180 c-35 -21 -92 -103 -92 -131 0 -23 50 -39 122 -39 52 0 63 3
89 29 45 45 34 118 -22 147 -37 19 -58 18 -97 -6z m103 -25 c43 -42 24 -122
-20 -85 -18 15 -38 77 -31 95 8 21 23 18 51 -10z m-67 -28 c6 -23 21 -53 33
-65 25 -27 22 -33 -20 -34 -39 -1 -58 15 -71 60 -8 31 -7 39 12 59 12 13 25
23 29 23 3 0 11 -19 17 -43z m-55 -86 c10 -12 8 -13 -18 -7 -40 10 -40 11 -25
43 l12 28 10 -24 c5 -14 14 -32 21 -40z"/>
</g>
</svg>
