<?xml version="1.0" standalone="no"?>
<!DOCTYPE svg PUBLIC "-//W3C//DTD SVG 20010904//EN"
 "http://www.w3.org/TR/2001/REC-SVG-20010904/DTD/svg10.dtd">
<svg version="1.0" xmlns="http://www.w3.org/2000/svg"
 width="32.000000pt" height="32.000000pt" viewBox="0 0 32.000000 32.000000"
 preserveAspectRatio="xMidYMid meet">

<g transform="translate(0.000000,32.000000) scale(0.100000,-0.100000)"
fill="#000000" stroke="none">
<path d="M201 291 c-14 -25 -14 -58 0 -66 16 -10 60 36 57 60 -4 28 -43 32
-57 6z"/>
<path d="M10 285 c-19 -23 -3 -63 31 -81 23 -11 44 -14 76 -9 60 9 66 29 20
72 -29 26 -45 33 -76 33 -22 0 -44 -6 -51 -15z"/>
<path d="M224 185 c-11 -28 7 -86 37 -118 28 -31 30 -31 44 -13 30 39 11 107
-36 132 -35 18 -38 18 -45 -1z"/>
<path d="M161 174 c-19 -14 -22 -23 -18 -55 3 -21 15 -54 27 -74 18 -29 28
-35 55 -35 40 0 51 12 28 31 -22 19 -53 88 -53 122 0 31 -7 33 -39 11z"/>
<path d="M96 92 c-9 -17 -16 -38 -16 -46 0 -14 62 -41 78 -34 4 2 -5 27 -19
57 l-27 54 -16 -31z"/>
</g>
</svg>
